<?xml version="1.0" standalone="no"?>
<svg xmlns:xlink="http://www.w3.org/1999/xlink" id="wave" style="transform:rotate(0deg); transition: 0.3s" viewBox="0 0 1440 480" version="1.1" xmlns="http://www.w3.org/2000/svg"><defs><linearGradient id="sw-gradient-0" x1="0" x2="0" y1="1" y2="0"><stop stop-color="rgba(0, 111, 238, 1)" offset="0%"/><stop stop-color="rgba(255, 179, 11, 1)" offset="100%"/></linearGradient></defs><path style="transform:translate(0, 0px); opacity:1" fill="url(#sw-gradient-0)" d="M0,0L30,40C60,80,120,160,180,184C240,208,300,176,360,136C420,96,480,48,540,80C600,112,660,224,720,240C780,256,840,176,900,152C960,128,1020,160,1080,160C1140,160,1200,128,1260,112C1320,96,1380,96,1440,136C1500,176,1560,256,1620,248C1680,240,1740,144,1800,144C1860,144,1920,240,1980,240C2040,240,2100,144,2160,128C2220,112,2280,176,2340,200C2400,224,2460,208,2520,240C2580,272,2640,352,2700,384C2760,416,2820,400,2880,360C2940,320,3000,256,3060,232C3120,208,3180,224,3240,200C3300,176,3360,112,3420,96C3480,80,3540,112,3600,120C3660,128,3720,112,3780,160C3840,208,3900,320,3960,312C4020,304,4080,176,4140,144C4200,112,4260,176,4290,208L4320,240L4320,480L4290,480C4260,480,4200,480,4140,480C4080,480,4020,480,3960,480C3900,480,3840,480,3780,480C3720,480,3660,480,3600,480C3540,480,3480,480,3420,480C3360,480,3300,480,3240,480C3180,480,3120,480,3060,480C3000,480,2940,480,2880,480C2820,480,2760,480,2700,480C2640,480,2580,480,2520,480C2460,480,2400,480,2340,480C2280,480,2220,480,2160,480C2100,480,2040,480,1980,480C1920,480,1860,480,1800,480C1740,480,1680,480,1620,480C1560,480,1500,480,1440,480C1380,480,1320,480,1260,480C1200,480,1140,480,1080,480C1020,480,960,480,900,480C840,480,780,480,720,480C660,480,600,480,540,480C480,480,420,480,360,480C300,480,240,480,180,480C120,480,60,480,30,480L0,480Z"/><defs><linearGradient id="sw-gradient-1" x1="0" x2="0" y1="1" y2="0"><stop stop-color="rgba(0, 111, 238, 1)" offset="0%"/><stop stop-color="rgba(255, 179, 11, 1)" offset="100%"/></linearGradient></defs><path style="transform:translate(0, 50px); opacity:0.9" fill="url(#sw-gradient-1)" d="M0,144L30,176C60,208,120,272,180,272C240,272,300,208,360,192C420,176,480,208,540,184C600,160,660,80,720,96C780,112,840,224,900,240C960,256,1020,176,1080,128C1140,80,1200,64,1260,104C1320,144,1380,240,1440,304C1500,368,1560,400,1620,416C1680,432,1740,432,1800,408C1860,384,1920,336,1980,280C2040,224,2100,160,2160,112C2220,64,2280,32,2340,24C2400,16,2460,32,2520,32C2580,32,2640,16,2700,24C2760,32,2820,64,2880,96C2940,128,3000,160,3060,152C3120,144,3180,96,3240,128C3300,160,3360,272,3420,304C3480,336,3540,288,3600,240C3660,192,3720,144,3780,112C3840,80,3900,64,3960,80C4020,96,4080,144,4140,184C4200,224,4260,256,4290,272L4320,288L4320,480L4290,480C4260,480,4200,480,4140,480C4080,480,4020,480,3960,480C3900,480,3840,480,3780,480C3720,480,3660,480,3600,480C3540,480,3480,480,3420,480C3360,480,3300,480,3240,480C3180,480,3120,480,3060,480C3000,480,2940,480,2880,480C2820,480,2760,480,2700,480C2640,480,2580,480,2520,480C2460,480,2400,480,2340,480C2280,480,2220,480,2160,480C2100,480,2040,480,1980,480C1920,480,1860,480,1800,480C1740,480,1680,480,1620,480C1560,480,1500,480,1440,480C1380,480,1320,480,1260,480C1200,480,1140,480,1080,480C1020,480,960,480,900,480C840,480,780,480,720,480C660,480,600,480,540,480C480,480,420,480,360,480C300,480,240,480,180,480C120,480,60,480,30,480L0,480Z"/><defs><linearGradient id="sw-gradient-2" x1="0" x2="0" y1="1" y2="0"><stop stop-color="rgba(0, 111, 238, 1)" offset="0%"/><stop stop-color="rgba(255, 179, 11, 1)" offset="100%"/></linearGradient></defs><path style="transform:translate(0, 100px); opacity:0.8" fill="url(#sw-gradient-2)" d="M0,288L30,304C60,320,120,352,180,368C240,384,300,384,360,352C420,320,480,256,540,200C600,144,660,96,720,104C780,112,840,176,900,184C960,192,1020,144,1080,120C1140,96,1200,96,1260,120C1320,144,1380,192,1440,216C1500,240,1560,240,1620,200C1680,160,1740,80,1800,48C1860,16,1920,32,1980,104C2040,176,2100,304,2160,304C2220,304,2280,176,2340,120C2400,64,2460,80,2520,104C2580,128,2640,160,2700,192C2760,224,2820,256,2880,248C2940,240,3000,192,3060,200C3120,208,3180,272,3240,256C3300,240,3360,144,3420,120C3480,96,3540,144,3600,152C3660,160,3720,128,3780,120C3840,112,3900,128,3960,176C4020,224,4080,304,4140,296C4200,288,4260,192,4290,144L4320,96L4320,480L4290,480C4260,480,4200,480,4140,480C4080,480,4020,480,3960,480C3900,480,3840,480,3780,480C3720,480,3660,480,3600,480C3540,480,3480,480,3420,480C3360,480,3300,480,3240,480C3180,480,3120,480,3060,480C3000,480,2940,480,2880,480C2820,480,2760,480,2700,480C2640,480,2580,480,2520,480C2460,480,2400,480,2340,480C2280,480,2220,480,2160,480C2100,480,2040,480,1980,480C1920,480,1860,480,1800,480C1740,480,1680,480,1620,480C1560,480,1500,480,1440,480C1380,480,1320,480,1260,480C1200,480,1140,480,1080,480C1020,480,960,480,900,480C840,480,780,480,720,480C660,480,600,480,540,480C480,480,420,480,360,480C300,480,240,480,180,480C120,480,60,480,30,480L0,480Z"/></svg>